<svg width="1619" height="905" viewBox="0 0 1619 905" fill="none" xmlns="http://www.w3.org/2000/svg">
<path d="M1.03603 996.003C-4.36815 894.873 9.54288 785.132 86.5415 709.658C184.283 614.112 349.176 604.018 495.249 610.854C584.469 614.955 676.441 622.519 760.636 596.454C788.123 586.973 814.357 575.308 839.31 561.458C864.277 547.62 887.539 531.854 909.098 514.145C1068.6 391.473 1179.77 228.017 1326.56 93.6797C1473.35 -40.6575 1680.82 -149.556 1888.77 -112.771C2124.29 -70.7217 2278.04 179.452 2187.86 374.556C2166.51 420.592 2134.61 462.219 2110.27 507.104C2026.32 662.677 2037.35 843.471 2013.49 1013.98C1989.63 1184.48 1906.99 1372.85 1723.4 1434.44C1586.79 1480.38 1431.98 1442.85 1288.06 1466.5C1135.64 1491.62 1009.84 1582.13 870.73 1642.47C415.016 1839.56 20.2201 1354.55 1.03603 996.003Z" fill="url(#paint0_linear_151_46)"/>
<defs>
<linearGradient id="paint0_linear_151_46" x1="1644.49" y1="-7.44359" x2="68.4448" y2="925.031" gradientUnits="userSpaceOnUse">
<stop stop-color="#FF9F0D" stop-opacity="0"/>
<stop offset="0.0001" stop-color="#FF9F0D" stop-opacity="0.683699"/>
<stop offset="0.0002" stop-color="#FF9F0D" stop-opacity="0.695"/>
<stop offset="0.0003" stop-color="#FF9F0D"/>
</linearGradient>
</defs>
</svg>
