<svg width="999" height="1476" viewBox="0 0 999 1476" fill="none" xmlns="http://www.w3.org/2000/svg">
<mask id="mask0_130_96" style="mask-type:luminance" maskUnits="userSpaceOnUse" x="0" y="0" width="1197" height="1476">
<path d="M0 0H1196.99V1476H0V0Z" fill="white"/>
</mask>
<g mask="url(#mask0_130_96)">
<path d="M36.5265 0.0283203C422.311 0.0283203 808.227 0.0283203 1194.01 0.0283203C1195.64 0.0283203 1196.99 1.44124 1196.99 3.13902C1196.99 473.163 1196.99 943.044 1196.99 1413.06C1196.99 1415.61 1196.99 1418.59 1196.99 1420.29C1196.99 1452.01 1192.52 1461.35 1172.43 1468.86C1136.46 1482.17 1096.27 1474.1 1067.09 1448.47C1046.87 1430.76 1035.87 1423.82 1026.64 1412.92C1020.8 1404.99 1015.23 1396.78 1010.21 1388.14C995.28 1362.37 982.657 1335.32 969.629 1308.55C954.968 1278.53 937.729 1250.35 915.601 1225.57C888.589 1195.4 856.553 1172.74 820.037 1156.88C797.641 1147.11 774.295 1139.75 751.49 1131.25C737.779 1126.15 724.069 1121.05 711.308 1113.27C687.143 1098.53 667.872 1078.14 650.769 1055.49C626.604 1023.62 609.091 987.933 596.331 949.699C583.571 911.743 575.836 872.518 567.965 833.292C560.088 794.346 552.894 755.405 541.899 717.307C531.04 679.216 517.193 642.394 496.288 608.832C478.645 580.368 457.33 555.3 431.543 534.482C407.241 514.941 380.502 499.928 352.945 486.05C328.785 473.869 303.265 464.811 278.558 453.906C242.452 438.045 207.023 420.623 173.763 398.671C126.934 367.661 86.7529 329.421 54.8527 281.98C38.564 257.767 24.5858 232.419 14.9447 204.52C2.59432 168.548 -1.75372 131.589 1.64387 93.6343C3.81243 70.549 9.24201 48.3183 19.2873 27.3581C24.3127 17.5873 30.1465 8.66536 36.5265 0.0283203Z" fill="#FF9F0D"/>
</g>
</svg>
